<svg xmlns="http://www.w3.org/2000/svg" xmlns:xlink="http://www.w3.org/1999/xlink" width="528" height="257.889" viewBox="0 0 528 257.889">
  <defs>
    <linearGradient id="linear-gradient" y1="0.5" x2="1" y2="0.5" gradientUnits="objectBoundingBox">
      <stop offset="0.118" stop-color="#939393"/>
      <stop offset="0.256" stop-color="#fff"/>
      <stop offset="0.402" stop-color="#939393"/>
      <stop offset="0.534" stop-color="#939393"/>
      <stop offset="0.717" stop-color="#bbb"/>
      <stop offset="0.843" stop-color="#d6d6d6"/>
      <stop offset="1" stop-color="#939598"/>
    </linearGradient>
    <linearGradient id="linear-gradient-2" y1="0.5" x2="1" y2="0.5" gradientUnits="objectBoundingBox">
      <stop offset="0" stop-color="#939393"/>
      <stop offset="0.118" stop-color="#939393"/>
      <stop offset="0.256" stop-color="#fff"/>
      <stop offset="0.402" stop-color="#939393"/>
      <stop offset="0.534" stop-color="#939393"/>
      <stop offset="0.717" stop-color="#bbb"/>
      <stop offset="0.843" stop-color="#d6d6d6"/>
      <stop offset="1" stop-color="#939598"/>
    </linearGradient>
  </defs>
  <g id="icarxus-logo" transform="translate(-132.731 -150.64)">
    <g id="Grupo_80" data-name="Grupo 80" transform="translate(0 -8)">
      <g id="Grupo_77" data-name="Grupo 77" transform="translate(412.353 158.64)">
        <path id="Trazado_158" data-name="Trazado 158" d="M299.214,173.56H185.65c37.843,2.012,75.6,3.088,113.5,3.14h.071c37.9-.053,75.633-1.129,113.5-3.14Z" transform="translate(-175.038 -64.318)" fill="url(#linear-gradient)"/>
        <g id="Grupo_76" data-name="Grupo 76" transform="translate(77.389 71.311)">
          <path id="Trazado_159" data-name="Trazado 159" d="M224.206,160.365c.335.635.635,1.27.97,1.906h90.173c.335-.635.635-1.271.97-1.906a7.639,7.639,0,0,0,.741-2.735H223.5a7.14,7.14,0,0,0,.706,2.735Z" transform="translate(-223.5 -147.803)"/>
          <path id="Trazado_160" data-name="Trazado 160" d="M311.7,162.53H225.6c.812,1.588,1.711,3.105,2.629,4.64h80.82C309.984,165.653,310.866,164.118,311.7,162.53Z" transform="translate(-221.895 -144.058)"/>
          <path id="Trazado_161" data-name="Trazado 161" d="M266.23,167.44H228.74c3.44,3.952,7.481,5.857,12.226,5.8,8.433-.053,16.845-.053,25.282-.053s16.845,0,25.282.053c4.746.053,8.786-1.852,12.226-5.8Z" transform="translate(-219.496 -140.306)"/>
          <path id="Trazado_162" data-name="Trazado 162" d="M269.9,157.864h45.835a5.847,5.847,0,0,0-1.746-1.852c-5.116-3.211-10.568-3.9-16.055-3.952H241.781c-5.488.053-10.938.741-16.055,3.952a5.847,5.847,0,0,0-1.746,1.852Z" transform="translate(-223.133 -152.06)" fill="#101010"/>
        </g>
        <path id="Trazado_163" data-name="Trazado 163" d="M281.709,114.193s-60.62-1.22-73.2,31.245c16.972,6.14,34.068,9.792,73.2,11.1,39.113-1.306,56.209-4.954,73.2-11.1C342.328,112.957,281.709,114.193,281.709,114.193Z" transform="translate(-157.566 -109.694)" fill="url(#linear-gradient-2)"/>
        <circle id="Elipse_5" data-name="Elipse 5" cx="19.865" cy="19.865" r="19.865" transform="translate(19.328 59.261)" fill="#858585"/>
        <circle id="Elipse_6" data-name="Elipse 6" cx="14.89" cy="14.89" r="14.89" transform="translate(24.303 64.236)"/>
        <path id="Trazado_164" data-name="Trazado 164" d="M303.776,166.914V161.2h-.017s-53.616.741-77.08-12.279c0,0,7.039-35.637,77.1-34.72V111.64c-6.686,0-88.318-.071-88.318,37.121,0,0-8.766-.106-11.167-5.945,0,0-4.252-12.967-17.466-10.568-5.61.97-5.822,9.6.053,11.538a31.769,31.769,0,0,0,10.18,1.306,4.93,4.93,0,0,1,5.064,4.9v.37s-17.15,1.143-21.065,18.789c-3.37,15.191-.915,33.415,9.192,50.087H203.3l-6.14-8.574s-11.927-15.984-11.7-32.956c.159-10.443,7.074-19.707,16.989-21.012a31.458,31.458,0,0,1,12.738,1.2,45.005,45.005,0,0,1,13.073,6.227l24.822,16.442-15.031-17.537s47.053,3.881,65.7,3.881Z" transform="translate(-179.635 -111.64)"/>
        <circle id="Elipse_7" data-name="Elipse 7" cx="19.865" cy="19.865" r="19.865" transform="translate(189.225 59.261)" fill="#858585"/>
        <circle id="Elipse_8" data-name="Elipse 8" cx="14.89" cy="14.89" r="14.89" transform="translate(194.2 64.236)"/>
        <path id="Trazado_165" data-name="Trazado 165" d="M250,166.914V161.2h.018s53.615.741,77.08-12.279c0,0-7.039-35.637-77.1-34.72V111.64c6.686,0,88.318-.071,88.318,37.121,0,0,8.766-.106,11.167-5.945,0,0,4.252-12.967,17.466-10.568,5.61.97,5.822,9.6-.053,11.538a31.77,31.77,0,0,1-10.18,1.306,4.93,4.93,0,0,0-5.064,4.9v.37s17.15,1.143,21.065,18.789c3.37,15.191.915,33.415-9.192,50.087H350.474l6.14-8.574s11.927-15.984,11.7-32.956c-.159-10.443-7.075-19.707-16.989-21.012a31.458,31.458,0,0,0-12.738,1.2,45.006,45.006,0,0,0-13.073,6.227L300.688,180.57l15.031-17.537s-47.053,3.881-65.7,3.881Z" transform="translate(-125.858 -111.64)"/>
      </g>
      <g id="Grupo_79" data-name="Grupo 79" transform="translate(233.736 394.868)">
        <path id="Trazado_175" data-name="Trazado 175" d="M142.515,243.164l1.2-2.074a8.4,8.4,0,0,0,5.782,2.1c3.012,0,4.874-1.226,4.874-3.179,0-2.074-2.044-3-4.98-3.845l-1.317-.364c-3.194-.878-5.755-2.271-5.755-5.661,0-3.648,3-6.069,7.493-6.069a9.817,9.817,0,0,1,6.812,2.42L155.26,228.6a7.81,7.81,0,0,0-5.434-2.013c-2.616,0-4.329,1.256-4.329,3.1,0,2.013,1.847,2.755,4.011,3.391l1.362.364c3.133.908,6.66,2.513,6.66,6.3,0,3.588-3.163,5.979-7.856,5.979A10.293,10.293,0,0,1,142.515,243.164Z" transform="translate(-142.32 -224.061)"/>
        <path id="Trazado_176" data-name="Trazado 176" d="M178.26,242.823v2.513H164.41V224.25h13.623v2.513H167.468v6.615h9.763v2.513h-9.763v6.948h10.79Z" transform="translate(-130.975 -223.977)"/>
        <path id="Trazado_177" data-name="Trazado 177" d="M206.48,245.381,205.6,229.4l-7.294,15.984h-1.741L189.3,229.458l-.878,15.923H185.38l1.332-21.221h3.27l7.462,16.317,7.432-16.317h3.27l1.332,21.221Z" transform="translate(-120.203 -224.024)"/>
        <path id="Trazado_178" data-name="Trazado 178" d="M213.84,224.25h3.042v21.085H213.84Z" transform="translate(-105.585 -223.977)"/>
        <path id="Trazado_179" data-name="Trazado 179" d="M228.82,224.25h1.907l14.016,15.891-.091-15.891h3.042v21.085h-1.907L231.8,229.444l.061,15.891H228.82Z" transform="translate(-97.89 -223.977)"/>
        <path id="Trazado_180" data-name="Trazado 180" d="M254.08,237.585V224.25h3.027v13.214c0,3.36,2.361,5.646,5.918,5.646,3.5,0,5.873-2.271,5.873-5.646V224.25h3.042v13.335c0,4.844-3.557,8.022-8.916,8.022S254.08,242.429,254.08,237.585Z" transform="translate(-84.915 -223.977)"/>
        <path id="Trazado_181" data-name="Trazado 181" d="M292.51,242.823v2.513H278.66V224.25h13.623v2.513H281.717v6.615h9.763v2.513h-9.763v6.948h10.79Z" transform="translate(-72.289 -223.977)"/>
        <path id="Trazado_182" data-name="Trazado 182" d="M298.26,224.25H301.5l7.324,17.346,7.266-17.346h3.255l-9.112,21.085h-2.845Z" transform="translate(-62.222 -223.977)"/>
        <path id="Trazado_183" data-name="Trazado 183" d="M322.1,234.893c0-6.494,4.329-10.823,10.79-10.823,6.433,0,10.762,4.329,10.762,10.823s-4.329,10.823-10.762,10.823C326.416,245.7,322.1,241.371,322.1,234.893Zm18.421,0c0-4.995-3.074-8.325-7.629-8.325-4.586,0-7.629,3.33-7.629,8.325,0,4.98,3.042,8.31,7.629,8.31C337.449,243.2,340.521,239.872,340.521,234.893Z" transform="translate(-49.976 -224.07)"/>
        <path id="Trazado_184" data-name="Trazado 184" d="M347.835,243.164l1.2-2.074a8.4,8.4,0,0,0,5.782,2.1c3.012,0,4.874-1.226,4.874-3.179,0-2.074-2.044-3-4.98-3.845l-1.317-.364c-3.194-.878-5.755-2.271-5.755-5.661,0-3.648,3-6.069,7.492-6.069a9.817,9.817,0,0,1,6.812,2.42l-1.36,2.106a7.809,7.809,0,0,0-5.434-2.013c-2.616,0-4.329,1.256-4.329,3.1,0,2.013,1.847,2.755,4.011,3.391l1.362.364c3.133.908,6.66,2.513,6.66,6.3,0,3.588-3.163,5.979-7.856,5.979A10.289,10.289,0,0,1,347.835,243.164Z" transform="translate(-36.856 -224.061)"/>
      </g>
      <text id="iCarxus" transform="translate(396.731 361.64)" fill="orange" font-size="154" font-family="Lato-Bold, Lato" font-weight="700"><tspan x="-263.763" y="0" fill="orange">i</tspan><tspan y="0" font-family="Lato-Black, Lato" font-weight="800" fill="#000">Car</tspan><tspan y="0" fill="orange">xus</tspan></text>
    </g>
  </g>
</svg>
